<svg width="156" height="245" viewBox="0 0 156 245" fill="none" xmlns="http://www.w3.org/2000/svg">
<g clip-path="url(#clip0_59_337)">
<path d="M37.3671 241.871C36.7322 241.172 35.4373 241.029 34.5763 241.522C32.4204 242.76 31.1826 241.965 31.2465 240.252C31.3105 238.539 33.5943 237.329 35.3071 237.272C39.0822 237.144 40.2652 233.807 40.9618 233.225C42.2064 232.188 42.8276 231.868 43.0446 230.738C43.4031 228.867 44.8876 228.536 46.5159 227.803C51.5448 225.535 51.2274 220.842 51.4809 219.764C51.7344 218.686 51.6636 216.533 54.3356 217.163C56.4938 217.672 57.9669 216.263 57.5238 213.918C57.0807 211.57 64.4208 209.932 71.971 212.977C73.4418 213.571 77.4613 213.397 77.6531 211.369C77.9203 208.517 79.0576 206.811 80.4096 205.618C81.4944 204.661 82.6934 205.618 83.3283 203.462C83.9632 201.307 84.7877 200.354 84.7877 200.354C83.2027 200.608 81.7434 203.526 80.0945 203.526C78.4456 203.526 77.7467 202.574 75.5269 206C73.3071 209.425 68.8034 206.824 67.7255 205.872C66.6475 204.92 65.3778 203.145 63.9824 201.686C62.587 200.226 61.573 201.368 59.5427 202.955C57.5124 204.54 55.7493 202.385 57.0054 201.371C58.2912 200.331 56.9095 199.356 55.3085 198.468C54.1324 197.815 50.8529 197.184 50.4075 198.641C49.9645 200.101 49.0098 200.464 48.1877 200.48C45.3969 200.537 44.4925 199.402 42.7797 198.831C41.0668 198.26 41.0189 197.054 42.9213 196.422C44.8237 195.787 43.4511 194.869 41.5898 194.455C40.0917 194.122 40.7859 192.902 41.0851 192.571C42.951 190.518 47.7423 188.111 51.232 187.825C53.6025 187.631 60.9061 184.653 60.9381 179.357C60.9472 177.822 61.8904 172.38 60.6846 170.793C59.4787 169.208 60.4311 169.08 60.5567 167.685C60.6846 166.289 58.113 165.371 55.7995 167.874C55.3336 168.377 54.8152 169.619 52.1523 169.809C48.8637 170.044 50.4075 167.874 52.0564 166.922C53.7053 165.97 53.3719 166.298 55.6716 164.766C57.5261 163.528 57.8595 162.055 57.147 161.199C56.1124 159.956 54.9751 159.438 53.5158 158.17C52.0564 156.901 53.7053 155.823 53.8332 154.048C53.9611 152.271 57.6974 152.826 58.5264 153.984C62.0937 158.963 64.0669 157.433 65.2339 156.919C67.7232 155.825 69.5891 155.64 72.0373 155.825C73.9397 155.967 77.6508 159.408 77.2078 158.266C76.7647 157.124 76.1618 153.541 77.8746 153.16C79.5875 152.778 78.1921 152.97 77.3676 151.637C76.5432 150.305 77.0502 149.099 78.32 148.147C79.5898 147.195 79.5258 145.546 79.5258 145.546C76.5455 145.164 76.9885 141.334 78.6374 140.535C79.4596 140.135 80.1607 140.028 80.2224 139.14C80.2863 138.251 80.5078 137.125 81.4647 136.235C83.3078 134.52 80.4119 132.798 79.0325 133.891C77.4202 135.17 77.4636 137.269 76.0978 137.427C75.5908 137.486 74.449 135.778 74.892 134.636C75.3351 133.494 75.463 133.812 73.9397 133.305C72.4164 132.798 72.6699 131.085 72.6699 131.085C72.7978 127.913 70.5756 126.392 69.6895 125.186C68.8011 123.98 69.8791 121.76 71.0849 120.237C72.2908 118.713 72.3547 119.223 72.6699 117.572C72.9873 115.923 73.4943 115.162 74.7002 113.764C75.906 112.369 77.6189 113.701 77.7445 112.75C77.8724 111.798 70.715 111.163 70.6396 113.385C70.5117 117.128 67.5953 115.098 65.058 116.937C62.5207 118.775 61.2509 116.43 58.3985 114.842C55.5438 113.257 58.2089 115.603 58.4624 117.508C58.7159 119.41 58.145 120.045 58.145 120.045C56.4961 120.552 54.0844 117.38 53.3239 115.984C52.5634 114.589 51.5951 114.541 50.1997 114.477C48.8043 114.413 50.1677 115.365 50.2956 118.284C50.4235 121.203 47.345 118.396 47.345 117.001C47.345 115.605 46.7786 114.847 46.0912 114.02C44.3966 111.976 47.2125 110.053 47.8428 109.699C48.8888 109.112 51.3165 105.728 51.3553 103.682C51.3804 102.412 51.2274 100.509 53.1321 99.8745C55.0345 99.2396 55.1464 98.4791 54.9089 97.0197C54.5617 94.8935 52.6251 93.9754 51.6727 93.4045C50.7204 92.8335 50.6587 91.9452 51.8006 90.9312C52.9425 89.9172 51.4832 86.9985 50.1517 87.1241C48.8203 87.252 49.7681 91.0408 48.4983 91.1687C47.2285 91.2966 47.297 87.9805 45.6778 88.4578C44.8008 88.7159 43.2981 91.9474 42.855 92.644C42.412 93.3428 41.2061 96.9581 41.0782 99.3675C40.9504 101.777 40.4685 102.062 38.8584 102.158C35.4441 102.359 37.3831 98.9381 37.8284 98.4951C38.2715 98.052 38.7077 97.513 38.6437 95.9715C38.4473 91.3125 39.9706 91.4062 39.7491 88.1404C39.6463 86.6354 41.873 83.3193 40.352 82.7483C39.4088 82.3944 36.8943 84.9682 36.1978 87.3799C35.499 89.7893 33.407 87.9508 33.7884 89.7276C34.1698 91.5044 34.7133 92.3745 31.6325 93.4068C28.7938 94.3591 30.1092 92.0114 30.1092 90.8055C30.1092 89.5997 29.3122 89.8669 28.5243 90.9334C26.4095 93.7905 27.3184 90.552 27.3184 88.524C27.3184 86.496 30.8126 85.4546 33.3773 85.6054C34.4553 85.6693 34.6768 84.5274 35.8826 82.625C37.0885 80.7226 39.0548 79.8342 39.8153 79.1993C40.5758 78.5644 40.9526 77.7126 41.7817 75.9016C42.3046 74.7597 42.7294 73.3186 43.6201 71.9689C46.3949 67.7667 44.762 66.8303 43.8097 67.7827C42.8573 68.735 40.9709 70.0505 40.891 71.4619C40.859 72.0282 40.7677 73.5698 38.8287 74.7597C33.6422 77.9478 29.6616 76.4086 29.472 74.8876C29.2322 72.9737 34.4827 72.5398 32.5803 70.9549C29.6479 68.5112 32.9617 67.3373 33.391 66.1406C33.6125 65.524 32.8406 64.3753 33.1261 63.7427C33.6833 62.5071 36.3531 63.0438 37.3397 62.4546C38.879 61.5342 39.0571 60.1708 38.7351 58.5219C38.6026 57.8391 38.2281 56.1125 36.6409 56.2381C35.0559 56.366 38.5912 52.0679 33.8501 53.1939C32.7127 53.4633 31.5023 51.6706 30.8697 49.2612C30.2348 46.8518 29.8603 47.8589 28.2045 47.5483C25.1602 46.9774 25.9847 43.0447 26.8091 43.6157C27.6336 44.1866 28.0789 44.3761 28.2045 42.4098C28.3324 40.4435 29.7278 41.3319 30.3604 42.5377C30.9953 43.7435 32.5803 44.3145 31.9454 42.2203C31.3105 40.126 32.4524 39.112 33.4687 38.5411C34.4827 37.9701 35.8392 40.5759 35.6885 42.7273C35.3551 47.5004 38.7328 50.3071 39.4956 50.1176C40.8796 49.7705 40.5872 48.1946 39.7628 47.2423C38.8675 46.21 38.7511 43.3804 40.4479 41.9827C41.2564 41.3159 41.3797 39.6533 41.0189 37.591C40.5279 34.7842 42.7957 33.213 44.3167 34.3549C45.8399 35.4968 48.7404 33.2016 47.2353 30.7397C45.8468 28.4719 48.7267 28.6386 47.9342 26.6791C47.6624 26.0076 46.6644 24.3313 48.0621 24.5848C49.4575 24.8384 50.4326 23.6553 50.7432 22.8766C51.2023 21.7187 49.9964 16.772 53.7099 15.0318C55.6831 14.1068 59.0517 18.0989 65.1265 16.909C67.4354 16.4569 68.9336 17.6695 70.6442 16.3381C72.357 15.0066 73.8004 15.5593 74.9582 15.3858C75.6251 15.2876 75.5931 14.4334 78.32 14.6869C81.0468 14.9404 80.4142 15.7649 79.6514 17.0346C78.8909 18.3044 79.4619 19.3824 79.4619 19.3824C80.4142 20.7778 78.1601 23.3973 76.6071 24.393C74.0379 26.0419 72.1674 29.0245 70.7081 29.785C69.2488 30.5455 66.7731 32.8339 66.2045 34.3526C65.5216 36.1774 66.933 35.2684 68.2987 36.5085C69.7101 37.792 69.4406 37.7783 65.8254 41.14C62.2101 44.5018 67.2048 43.6773 69.854 41.9805C71.834 40.713 75.6502 38.9019 77.7193 39.7446C81.62 41.3296 89.0424 41.4894 92.2785 40.8226C93.7561 40.5188 100.461 41.647 96.4647 49.0693C95.8549 50.1998 94.0553 51.4171 93.7378 54.1439C93.4204 56.8708 92.7238 59.979 90.5656 63.6582C90.0404 64.5557 88.7272 64.7361 87.7749 67.7187C86.4571 71.8455 83.6526 72.6677 83.6526 72.6677C78.3885 71.9689 77.0548 75.3945 77.0548 75.3945C82.9538 72.0968 82.7642 74.1248 82.1933 74.9515C81.6223 75.7759 82.7003 75.9655 84.7945 76.9178C86.8887 77.8702 84.9841 80.154 83.4631 80.154C81.9421 80.154 80.0853 79.7657 78.0071 82.6273C76.3262 84.9431 70.9182 84.4201 70.9182 84.4201C72.3136 85.6259 75.6594 85.2263 77.5001 86.0507C79.3385 86.8752 80.7842 86.0758 81.4967 85.2262C83.4631 82.8785 86.2539 84.2122 88.0306 85.6693C89.8074 87.1286 89.8348 87.204 91.3536 87.3159C94.8181 87.5717 95.5786 93.2172 97.6088 94.2335C99.6391 95.2475 100.697 98.6686 100.653 99.7511C100.541 102.59 102.619 111.613 104.46 115.482C107.32 121.497 108.139 121.762 113.088 123.283C118.037 124.807 117.122 126.851 118.962 128.881C120.801 130.911 123.493 132.551 123.493 135.084C123.493 138.573 125.841 144.219 127.3 146.311C128.76 148.405 126.761 148.024 125.27 147.581C123.872 147.165 122.114 146.658 122.114 146.658C122.114 146.658 122.82 146.868 125.261 148.716C126.378 149.561 127.232 150.666 128.568 151.831C131.548 154.432 132.564 160.109 131.866 162.108C131.167 164.106 127.963 164.846 128.02 166.461C128.043 167.127 128.376 167.532 130.47 168.482C132.564 169.434 134.085 168.482 134.371 167.054C134.656 165.627 134.656 165.056 137.415 164.771C140.174 164.485 147.733 165.074 153.205 169.955C158.063 174.285 154.731 177.331 154.256 182.755C153.781 188.179 152.068 189.511 150.83 190.082C149.592 190.653 148.165 191.509 148.642 193.507C149.117 195.506 146.169 196.552 143.979 196.362C141.791 196.173 143.408 197.694 143.312 199.884C143.216 202.072 142.551 203.309 139.505 203.214C136.461 203.118 133.035 205.308 133.035 205.308C134.748 204.262 138.363 204.737 140.172 204.833C141.981 204.929 143.312 209.304 147.594 207.402C151.876 205.5 152.351 207.212 150.83 208.258C149.307 209.304 151.876 212.73 150.83 213.682C149.784 214.635 146.882 215.777 145.217 217.535C143.486 219.365 141.553 219.296 139.841 220.152C135.065 222.541 134.592 224.38 132.277 224.72C129.961 225.06 128.851 223.578 124.379 222.626C119.908 221.673 117.149 225.353 115.151 225.385C113.152 225.417 110.172 222.751 105.922 223.482C104.232 223.772 102.307 226.147 99.8333 225.421C97.3599 224.697 95.1698 225.433 95.5534 228.002C95.8549 230.03 87.8753 229.888 85.2741 228.191C83.7508 227.198 83.1342 226.193 81.04 225.433C78.9457 224.672 79.1855 225.574 74.7116 226.812C70.2399 228.05 68.5271 231.38 67.7666 235.662C67.0061 239.944 64.8091 239.037 62.1051 236.899C60.0588 235.283 57.3 234.664 53.6848 234.853C50.0695 235.043 48.9276 235.614 46.3584 237.66C43.796 239.702 42.6472 242.038 42.6472 242.038C39.5709 247.43 38.0157 242.577 37.3831 241.88L37.3671 241.871ZM57.9509 126.896C57.9509 126.896 55.8566 126.611 54.9545 128.228C54.0502 129.845 54.0022 131.13 52.2894 131.749C52.2894 131.749 52.2894 131.797 52.0518 133.129C51.8143 134.46 49.7681 136.41 51.8143 135.935C53.8606 135.46 54.4795 135.746 55.4775 134.842C56.4755 133.937 58.3802 131.939 58.8073 130.274C59.2344 128.609 57.0465 130.274 57.9509 126.896ZM36.4148 119.198C36.4148 119.198 38.3263 118.357 38.445 117.001C38.63 114.895 36.2572 114.431 35.3048 111.862C34.3525 109.293 33.592 110.387 33.8295 109.578C34.067 108.77 33.7815 107.676 33.592 106.438C33.4024 105.2 33.7336 103.535 31.3562 103.965C28.9765 104.392 28.6704 103.012 26.0646 103.394C23.4588 103.775 21.175 105.203 19.9372 104.584C19.9372 104.584 19.4142 104.394 18.7953 105.678C18.1764 106.961 17.6534 108.436 15.799 107.676C13.9446 106.915 12.7068 107.534 11.6128 110.341C10.5189 113.148 10.1946 113.73 9.13948 114.765C8.31503 115.573 7.6162 116.096 5.95131 115.669C4.28643 115.242 2.90703 115.621 3.57161 116.859C4.23847 118.097 6.02896 118.033 5.99699 119.424C5.98557 119.94 4.80714 120.997 3.04634 120.57C1.28554 120.143 1.23758 120.047 0.381157 121.568C-0.475263 123.091 0.143643 123.329 1.80852 125.802C3.47341 128.276 2.8545 128.561 5.09033 129.847C7.32615 131.13 9.42039 130.893 10.6559 131.701C11.8937 132.51 15.2715 131.034 14.2712 127.942C13.2731 124.85 17.553 124.135 18.0782 125.421C18.6012 126.704 19.4097 130.607 21.5039 130.939C23.5981 131.27 21.931 131.985 21.931 133.364C21.931 134.743 24.5962 135.029 27.1631 133.364C27.1631 133.364 28.4466 133.887 30.7304 135.125C33.0142 136.363 34.2977 134.506 34.1561 131.795C34.0145 129.084 37.5818 130.272 37.9152 130.511C38.2486 130.749 41.7565 127.175 41.0075 122.852C40.4137 119.421 38.8675 119.093 36.4079 119.198H36.4148ZM45.6755 91.6277C45.6755 91.6277 43.8987 92.1667 43.8051 93.5941C43.7092 95.0214 44.1865 95.3069 44.2481 95.9418C44.3121 96.5767 43.5493 98.9541 45.961 99.2715C48.3704 99.589 48.8157 98.543 48.3087 97.3052C47.8017 96.0674 47.4203 96.2592 47.6099 94.9255C47.7994 93.594 46.6895 91.4039 45.6755 91.6277ZM31.1643 55.2949C29.641 55.199 30.3559 56.9598 31.7832 58.6727C33.2106 60.3855 33.1147 56.1514 33.1147 56.1514C33.1763 54.7263 32.6876 55.3909 31.1643 55.2949ZM33.7176 26.0351C33.4047 23.2648 35.8118 22.0384 36.3828 21.15C36.9537 20.2616 37.2712 15.9476 35.6223 16.8999C33.9734 17.8522 33.3362 18.8799 31.7535 19.6267C27.7889 21.4972 27.693 22.735 25.3795 22.9245C24.0458 23.0342 23.6347 22.7966 23.0637 24.9548C22.4928 27.1107 24.3952 29.0154 22.6823 29.0154C20.9695 29.0154 23.1437 30.8653 23.6027 31.2672C24.3449 31.9181 25.2836 32.8841 23.8242 33.519C21.4263 34.5627 22.0474 36.3738 23.6347 36.9447C25.2196 37.5157 29.0267 34.09 30.486 32.5667C31.9454 31.0434 34.1013 29.3945 33.7222 26.0328L33.7176 26.0351ZM17.7334 38.1528C15.9566 38.6598 16.274 39.6761 17.0345 40.8797C17.795 42.0855 18.366 42.339 17.288 44.9402C16.2101 47.5415 16.5892 52.1091 17.288 53.694C17.9869 55.279 19.1265 55.6603 19.0648 51.4742C19.0009 47.288 22.4905 39.0412 22.4905 39.0412C21.9196 37.8993 19.5102 37.6458 17.7334 38.1528ZM75.2688 9.00485C75.7918 9.14645 76.1253 10.5281 76.4587 11.4782C76.7921 12.4305 78.5986 11.1927 78.505 9.90923C78.409 8.62574 76.4587 7.48385 76.4587 7.48385C75.1272 7.24634 74.7458 8.86326 75.2688 9.00713V9.00485ZM79.1695 7.71908C79.1695 7.71908 81.024 6.6731 82.0243 8.14615C83.0223 9.62147 84.6415 9.02312 84.3081 7.75105C83.9746 6.48127 82.7825 6.43331 81.7616 6.00395C80.7408 5.57689 79.6948 5.33709 80.2635 4.72047C80.8344 4.10156 81.4054 3.43698 79.93 2.34076C78.4547 1.24682 76.2189 1.10295 76.2189 3.00763C76.2189 4.9123 75.8855 7.5752 79.1695 7.71679V7.71908ZM81.1679 12.668C81.4533 13.6204 81.9763 12.8096 82.4513 10.3843C82.9264 7.95888 80.549 10.3843 80.549 10.3843C80.3114 11.3823 80.8824 11.7157 81.1679 12.668ZM80.4919 1.54372C80.4919 1.54372 81.8804 2.8843 82.1659 1.54372C82.4513 0.203134 81.7388 0.155175 80.8344 0.0112959C79.93 -0.130299 79.624 0.988757 80.4919 1.54372ZM103.053 227.49C103.053 227.49 104.718 227.947 105.908 229.185C107.098 230.423 108.144 228.043 109.19 227.472C110.236 226.901 110.046 225.522 108.571 224.999C107.096 224.476 106.854 223.905 106.022 224.999C105.191 226.093 101.245 226.399 103.051 227.493L103.053 227.49Z" fill="#00315B"/>
<path d="M96.9623 184.227C95.7773 184.227 94.7562 184.038 93.899 183.66C93.0544 183.281 92.4052 182.714 91.9514 181.958C91.4975 181.189 91.2706 180.237 91.2706 179.103V171.028H94.107V179.027C94.107 179.96 94.3528 180.678 94.8445 181.183C95.3361 181.674 96.042 181.92 96.9623 181.92C97.8825 181.92 98.5885 181.674 99.0801 181.183C99.5843 180.678 99.8365 179.96 99.8365 179.027V171.028H102.673V179.103C102.673 180.237 102.446 181.189 101.992 181.958C101.538 182.714 100.883 183.281 100.026 183.66C99.1809 184.038 98.1598 184.227 96.9623 184.227ZM105.113 184V171.028H107.93V176.928L113.452 171.028H116.931L111.977 176.304L117.026 184H113.66L110.029 178.252L107.93 180.143V184H105.113Z" fill="white"/>
</g>
<defs>
<clipPath id="clip0_59_337">
<rect width="155.8" height="244.543" fill="white"/>
</clipPath>
</defs>
</svg>
