<svg width="228" height="36" viewBox="0 0 227.685 35.5027" fill="none" xmlns="http://www.w3.org/2000/svg" aria-hidden="true">
  <g id="logo">
    <g id="Group 5.1">
      <path d="M15.6227 23.6254H11.2659L25.8547 0.698474L43.6213 28.944H38.34L36.1616 25.4133H37.403L25.8547 7.17141L15.6227 23.6254Z" fill="#00315B" stroke="#00315B" stroke-width="0.746869"/>
      <path d="M40.0692 34.8305H4.53594L6.90483 30.1229H11.6426L11.0504 31.0056H33.8509L23.4037 14.2916L25.5821 10.8685L40.0692 34.8305Z" fill="#00315B" stroke="#00315B" stroke-width="0.746869"/>
      <path d="M18.7487 0.698574L0.685944 28.6499H30.5607L28.3824 25.1192H7.49648L18.7487 7.17151L19.3577 8.06576L21.7098 4.22927L18.7487 0.698574Z" fill="#00315B" stroke="#00315B" stroke-width="0.746869"/>
    </g>
    <g id="Ardent">
      <path d="M77.271 25.9811L81.5404 34.9227H86.0944L69.4439 0.0263529L52.7933 34.9227H57.3947L61.6641 25.9811H77.271ZM75.3261 21.9211H63.609L69.4439 9.45126L75.3261 21.9211Z" fill="#00315B"/>
      <path d="M88.0994 34.9227H92.5111V19.2145L108.64 34.9227H114.285L98.3933 19.3595H98.4407C104.655 19.3595 108.687 15.6862 108.687 10.0312C108.64 4.37631 104.845 0.606348 98.6305 0.606348H88.0994V34.9227ZM92.5111 15.2995V4.76297H98.1087C101.951 4.76297 104.276 6.55129 104.276 10.0312C104.276 13.4629 101.951 15.2995 98.1087 15.2995H92.5111Z" fill="#00315B"/>
      <path d="M115.422 34.9227H125.099C135.441 34.9227 143.031 27.5761 143.031 17.7645C143.031 7.95294 135.441 0.606348 125.099 0.606348H115.422V34.9227ZM119.834 30.7177V4.8113H125.099C133.211 4.8113 138.572 10.3212 138.572 17.7645C138.572 25.2078 133.211 30.7177 125.099 30.7177H119.834Z" fill="#00315B"/>
      <path d="M147.239 34.9227H166.878V30.6694H151.65V19.5045H162.419V15.2512H151.65V4.85964H166.878V0.606348H147.239V34.9227Z" fill="#00315B"/>
      <path d="M199.502 35.5027V0.606348H195.09V24.8694L171.087 0.0263529V34.9227H175.499V10.6596L199.502 35.5027Z" fill="#00315B"/>
      <path d="M212.885 34.9227H217.202V4.85964H227.685V0.606348H202.401V4.85964H212.885V34.9227Z" fill="#00315B"/>
    </g>
  </g>
</svg>
